{
    "asset" : {
        "generator" : "Khronos glTF Blender I/O v1.6.16",
        "version" : "2.0"
    },
    "scene" : 0,
    "scenes" : [
        {
            "name" : "Scene",
            "nodes" : [
                0
            ]
        }
    ],
    "nodes" : [
        {
            "mesh" : 0,
            "name" : "PlayerStart",
            "translation" : [
                0,
                3.7986743450164795,
                -0.03716612607240677
            ]
        }
    ],
    "materials" : [
        {
            "emissiveFactor" : [
                1,
                1,
                1
            ],
            "emissiveTexture" : {
                "index" : 0
            },
            "name" : "PlayerStart",
            "pbrMetallicRoughness" : {}
        }
    ],
    "meshes" : [
        {
            "name" : "PlayerStart",
            "primitives" : [
                {
                    "attributes" : {
                        "POSITION" : 0,
                        "NORMAL" : 1,
                        "TEXCOORD_0" : 2
                    },
                    "indices" : 3,
                    "material" : 0
                }
            ]
        }
    ],
    "textures" : [
        {
            "sampler" : 0,
            "source" : 0
        }
    ],
    "images" : [
        {
            "bufferView" : 4,
            "mimeType" : "image/png",
            "name" : "PlayerStart"
        }
    ],
    "accessors" : [
        {
            "bufferView" : 0,
            "componentType" : 5126,
            "count" : 2345,
            "max" : [
                1.0982005596160889,
                2.0464746952056885,
                0.9741072058677673
            ],
            "min" : [
                -1.0982005596160889,
                -4.519723892211914,
                -0.33106565475463867
            ],
            "type" : "VEC3"
        },
        {
            "bufferView" : 1,
            "componentType" : 5126,
            "count" : 2345,
            "type" : "VEC3"
        },
        {
            "bufferView" : 2,
            "componentType" : 5126,
            "count" : 2345,
            "type" : "VEC2"
        },
        {
            "bufferView" : 3,
            "componentType" : 5123,
            "count" : 3528,
            "type" : "SCALAR"
        }
    ],
    "bufferViews" : [
        {
            "buffer" : 0,
            "byteLength" : 28140,
            "byteOffset" : 0
        },
        {
            "buffer" : 0,
            "byteLength" : 28140,
            "byteOffset" : 28140
        },
        {
            "buffer" : 0,
            "byteLength" : 18760,
            "byteOffset" : 56280
        },
        {
            "buffer" : 0,
            "byteLength" : 7056,
            "byteOffset" : 75040
        },
        {
            "buffer" : 0,
            "byteLength" : 82491,
            "byteOffset" : 82096
        }
    ],
    "samplers" : [
        {
            "magFilter" : 9728,
            "minFilter" : 9984,
            "wrapS" : 33071,
            "wrapT" : 33071
        }
    ],
    "buffers" : [
        {
            "byteLength" : 164588,
            "uri" : "data:application/octet-stream;base64,"
        }
    ]
}
